<svg xmlns="http://www.w3.org/2000/svg" xmlns:xlink="http://www.w3.org/1999/xlink" width="500" zoomAndPan="magnify" viewBox="0 0 375 374.999991" height="500" preserveAspectRatio="xMidYMid meet" version="1.0"><defs><clipPath id="cb0f46f644"><path d="M 143 144.597656 L 230 144.597656 L 230 224 L 143 224 Z M 143 144.597656 " clip-rule="nonzero"/></clipPath><clipPath id="75eaafaa46"><path d="M 138 188 L 233.445312 188 L 233.445312 247.507812 L 138 247.507812 Z M 138 188 " clip-rule="nonzero"/></clipPath><clipPath id="44af3234d5"><path d="M 32 144.597656 L 136.738281 144.597656 L 136.738281 247.507812 L 32 247.507812 Z M 32 144.597656 " clip-rule="nonzero"/></clipPath><clipPath id="1d483b507b"><path d="M 31.773438 165 L 74 165 L 74 234 L 31.773438 234 Z M 31.773438 165 " clip-rule="nonzero"/></clipPath><clipPath id="ad55c798bd"><path d="M 239 144.597656 L 343.71875 144.597656 L 343.71875 247.507812 L 239 247.507812 Z M 239 144.597656 " clip-rule="nonzero"/></clipPath><clipPath id="5d307ad641"><path d="M 238.75 165 L 281 165 L 281 234 L 238.75 234 Z M 238.75 165 " clip-rule="nonzero"/></clipPath></defs><g clip-path="url(#cb0f46f644)"><path fill="#ee334e" d="M 175.535156 223.054688 C 173.582031 221.804688 171.804688 220.335938 170.207031 218.648438 C 167.542969 215.835938 165.464844 212.492188 164.003906 208.652344 C 162.539062 204.8125 161.808594 200.625 161.785156 196.058594 L 161.785156 195.769531 C 161.808594 191.503906 162.539062 187.523438 164.003906 183.78125 C 165.464844 180.0625 167.472656 176.765625 170.066406 173.925781 C 172.660156 171.082031 175.65625 168.855469 179.105469 167.246094 C 182.550781 165.632812 186.257812 164.804688 190.242188 164.785156 C 194.039062 164.785156 197.414062 165.183594 200.367188 165.964844 C 203.316406 166.773438 206.058594 167.90625 208.582031 169.398438 C 211.128906 170.917969 213.652344 172.742188 216.152344 174.875 L 229.886719 158.242188 C 227.316406 156.039062 224.671875 154.074219 221.960938 152.394531 C 219.222656 150.6875 216.324219 149.265625 213.226562 148.105469 C 210.136719 146.964844 206.761719 146.089844 203.109375 145.496094 C 199.445312 144.90625 195.386719 144.597656 190.953125 144.597656 C 184.933594 144.621094 179.292969 145.496094 174.03125 147.230469 C 168.746094 148.960938 163.976562 151.394531 159.683594 154.570312 C 132.625 174.535156 139.816406 215.964844 175.535156 223.054688 " fill-opacity="1" fill-rule="nonzero"/></g><g clip-path="url(#75eaafaa46)"><path fill="#00a651" d="M 191.089844 247.507812 C 197.132812 247.460938 202.726562 246.742188 207.871094 245.34375 C 212.996094 243.921875 217.683594 242.035156 221.960938 239.664062 C 226.210938 237.292969 230.03125 234.644531 233.425781 231.730469 L 233.425781 188.519531 L 190.386719 188.519531 L 190.386719 207.425781 L 212.332031 207.425781 L 212.332031 221.632812 C 186.859375 239.988281 144.484375 227.679688 138.988281 196.058594 C 138.988281 203.125 140.136719 210.15625 142.785156 216.726562 C 145.285156 222.960938 148.851562 228.363281 153.476562 232.957031 C 158.078125 237.558594 163.574219 241.109375 169.925781 243.644531 C 176.296875 246.175781 183.351562 247.460938 191.089844 247.507812 " fill-opacity="1" fill-rule="nonzero"/></g><g clip-path="url(#44af3234d5)"><path fill="#000000" d="M 97.285156 247.503906 C 106.53125 245.144531 114.761719 240.320312 121.300781 233.8125 C 130.882812 224.386719 136.746094 211.371094 136.746094 197.007812 C 136.746094 182.644531 130.882812 169.515625 121.300781 159.976562 C 111.714844 150.550781 98.636719 144.605469 84.09375 144.605469 C 69.660156 144.605469 56.582031 150.550781 47.113281 159.976562 C 39.21875 167.945312 33.808594 178.378906 32.230469 190.050781 C 40.574219 173.667969 57.257812 165.027344 73.945312 165.699219 C 77.214844 164.578125 80.597656 164.015625 84.09375 164.015625 C 93.226562 164.015625 101.457031 167.71875 107.546875 173.777344 C 125.472656 191.621094 118.144531 233.699219 97.285156 247.503906 " fill-opacity="1" fill-rule="evenodd"/></g><g clip-path="url(#1d483b507b)"><path fill="#fcb131" d="M 47.902344 186.121094 C 50.382812 183.652344 53.085938 181.632812 56.019531 180.0625 C 57.371094 177.707031 59.0625 175.574219 60.980469 173.667969 C 64.589844 170.074219 68.984375 167.269531 73.945312 165.699219 C 57.257812 165.027344 40.574219 173.667969 32.230469 190.050781 C 31.890625 192.292969 31.777344 194.648438 31.777344 197.007812 C 31.777344 211.03125 37.304688 223.714844 46.324219 233.140625 C 35.273438 220.460938 33.921875 200.148438 47.902344 186.121094 " fill-opacity="1" fill-rule="evenodd"/></g><path fill="#0081c8" d="M 56.019531 180.0625 C 53.085938 181.632812 50.382812 183.652344 47.902344 186.121094 C 33.921875 200.148438 35.273438 220.460938 46.324219 233.140625 C 46.546875 233.363281 46.773438 233.585938 47.113281 233.925781 C 49.140625 235.945312 51.285156 237.738281 53.652344 239.421875 C 58.835938 242.675781 65.039062 244.585938 72.03125 244.585938 C 87.589844 244.585938 99.3125 235.160156 104.273438 222.925781 C 98.636719 227.191406 91.648438 229.660156 84.09375 229.660156 C 75.074219 229.660156 66.84375 226.070312 60.867188 220.121094 C 55.003906 214.289062 51.285156 206.097656 51.285156 197.007812 C 51.285156 190.835938 52.976562 185 56.019531 180.0625 " fill-opacity="1" fill-rule="evenodd"/><g clip-path="url(#ad55c798bd)"><path fill="#000000" d="M 304.261719 247.503906 C 313.507812 245.144531 321.738281 240.320312 328.277344 233.8125 C 337.859375 224.386719 343.722656 211.371094 343.722656 197.007812 C 343.722656 182.644531 337.859375 169.515625 328.277344 159.976562 C 318.695312 150.550781 305.613281 144.605469 291.070312 144.605469 C 276.640625 144.605469 263.558594 150.550781 254.089844 159.976562 C 246.195312 167.945312 240.785156 178.378906 239.207031 190.050781 C 247.550781 173.667969 264.238281 165.027344 280.921875 165.699219 C 284.191406 164.578125 287.574219 164.015625 291.070312 164.015625 C 300.203125 164.015625 308.433594 167.71875 314.523438 173.777344 C 332.449219 191.621094 325.121094 233.699219 304.261719 247.503906 " fill-opacity="1" fill-rule="evenodd"/></g><g clip-path="url(#5d307ad641)"><path fill="#fcb131" d="M 254.878906 186.121094 C 257.359375 183.652344 260.066406 181.632812 262.996094 180.0625 C 264.351562 177.707031 266.039062 175.574219 267.957031 173.667969 C 271.566406 170.074219 275.960938 167.269531 280.921875 165.699219 C 264.238281 165.027344 247.550781 173.667969 239.207031 190.050781 C 238.867188 192.292969 238.757812 194.648438 238.757812 197.007812 C 238.757812 211.03125 244.28125 223.714844 253.300781 233.140625 C 242.25 220.460938 240.898438 200.148438 254.878906 186.121094 " fill-opacity="1" fill-rule="evenodd"/></g><path fill="#0081c8" d="M 262.996094 180.0625 C 260.066406 181.632812 257.359375 183.652344 254.878906 186.121094 C 240.898438 200.148438 242.25 220.460938 253.300781 233.140625 C 253.527344 233.363281 253.75 233.585938 254.089844 233.925781 C 256.117188 235.945312 258.261719 237.738281 260.628906 239.421875 C 265.816406 242.675781 272.015625 244.585938 279.007812 244.585938 C 294.566406 244.585938 306.292969 235.160156 311.253906 222.925781 C 305.613281 227.191406 298.625 229.660156 291.070312 229.660156 C 282.050781 229.660156 273.820312 226.070312 267.84375 220.121094 C 261.980469 214.289062 258.261719 206.097656 258.261719 197.007812 C 258.261719 190.835938 259.953125 185 262.996094 180.0625 " fill-opacity="1" fill-rule="evenodd"/></svg>